<?xml version="1.0" standalone="no"?><!DOCTYPE svg PUBLIC "-//W3C//DTD SVG 1.1//EN" "http://www.w3.org/Graphics/SVG/1.1/DTD/svg11.dtd"><svg t="1623306811823" class="icon" viewBox="0 0 1024 1024" version="1.1" xmlns="http://www.w3.org/2000/svg" p-id="9318" xmlns:xlink="http://www.w3.org/1999/xlink" width="200" height="200"><defs><style type="text/css"></style></defs><path d="M506.148571 235.008S278.820571 129.097143 0 144.603429l54.198857 741.083428s206.628571-20.699429 451.876572 126.537143c0 0 216.941714-142.043429 433.810285-126.537143l72.338286-741.083428s-204.068571-15.506286-506.148571 90.404571z m-36.205714 686.811429c-170.422857-92.891429-361.472-90.404571-361.472-90.404572L72.265143 198.802286c196.242286-10.313143 397.677714 108.470857 397.677714 108.470857v614.546286z m433.737143-90.404572c-170.422857-18.066286-361.472 90.404571-361.472 90.404572V307.273143c198.875429-113.590857 415.744-108.470857 415.744-108.470857l-54.198857 632.685714zM72.338286 72.265143v36.205714s180.809143 27.062857 216.941714 54.198857l90.331429 36.132572S327.68 81.334857 72.411429 72.265143zM108.470857 0l18.066286 54.198857s244.004571 38.473143 307.2 162.669714h54.272S343.405714 6.802286 108.397714 0z m524.141714 198.802286l90.404572-36.132572c36.132571-27.062857 216.868571-54.198857 216.868571-54.198857V72.265143c-255.268571 9.069714-307.2 126.537143-307.2 126.537143z m-108.470857 18.066285h54.272c63.268571-124.196571 307.2-162.669714 307.2-162.669714L903.826286 0c-235.008 6.802286-379.611429 216.868571-379.611429 216.868571z" fill="#333333" p-id="9319"></path></svg>