<?xml version="1.0" standalone="no"?><!DOCTYPE svg PUBLIC "-//W3C//DTD SVG 1.1//EN" "http://www.w3.org/Graphics/SVG/1.1/DTD/svg11.dtd"><svg t="1623307029091" class="icon" viewBox="0 0 1545 1024" version="1.1" xmlns="http://www.w3.org/2000/svg" p-id="14554" xmlns:xlink="http://www.w3.org/1999/xlink" width="301.7578125" height="200"><defs><style type="text/css"></style></defs><path d="M382.015504 77.395349c39.689922 0 79.379845 19.844961 126.015504 47.627907l11.906976 5.953488c109.147287 50.604651 168.682171 86.325581 260.961241 86.325582 81.364341 0 132.96124-24.806202 245.085271-87.31783l4.96124-2.976744c53.581395-30.75969 101.209302-44.651163 142.883721-44.651163 87.317829 0 131.968992 71.44186 133.953489 74.418605l5.953488 9.92248c1.984496 2.976744 156.775194 213.333333 156.775194 557.643411 0 84.341085-13.891473 221.271318-106.170543 221.271318-41.674419 0-89.302326-12.899225-131.968992-46.635659-10.914729-7.937984-19.844961-19.844961-30.75969-33.736434-78.387597-89.302326-129.984496-159.751938-429.643411-159.751938-302.635659 0-357.209302 70.449612-432.620155 162.728682-10.914729 10.914729-19.844961 22.821705-27.782946 30.75969-39.689922 33.736434-89.302326 46.635659-131.968992 46.635659C87.317829 945.612403 73.426357 805.705426 73.426357 724.341085c0-344.310078 153.79845-554.666667 156.775193-557.643411l2.976745-2.976744v-2.976744c0 3.968992 58.542636-83.348837 148.837209-83.348837zM386.976744 0C252.031008 0 171.658915 122.046512 171.658915 122.046512S0 348.27907 0 722.356589c0 227.224806 88.310078 301.643411 188.527132 301.643411 63.503876 0 132.96124-32.744186 185.550387-77.395349 74.418605-71.44186 55.565891-168.682171 398.883721-168.68217s321.488372 97.24031 398.883721 168.68217c49.612403 44.651163 119.069767 77.395349 185.550388 77.395349 99.224806 0 188.527132-74.418605 188.527132-301.643411 0-373.085271-171.658915-600.310078-171.658915-600.310077s-63.503876-119.069767-204.403101-119.069768c-49.612403 0-113.116279 16.868217-185.550387 58.542636C893.023256 114.108527 853.333333 138.914729 784.868217 138.914729c-71.44186 0-125.023256-9.922481-225.24031-74.418605C490.170543 18.852713 437.581395 0 386.976744 0" fill="#333333" p-id="14555"></path><path d="M1102.387597 450.48062c0 45.643411 36.713178 83.348837 83.348837 83.348837 45.643411 0 83.348837-36.713178 83.348837-83.348837 0-45.643411-36.713178-83.348837-83.348837-83.348837-45.643411 0.992248-83.348837 37.705426-83.348837 83.348837z" fill="#333333" p-id="14556"></path><path d="M221.271318 414.75969h386.976744v55.565891h-386.976744v-55.565891z" fill="#333333" p-id="14557"></path><path d="M386.976744 249.054264h55.565892v386.976744H386.976744v-386.976744z" fill="#333333" p-id="14558"></path></svg>