<?xml version="1.0" standalone="no"?><!DOCTYPE svg PUBLIC "-//W3C//DTD SVG 1.1//EN"
        "http://www.w3.org/Graphics/SVG/1.1/DTD/svg11.dtd">
<svg t="1622463901069" class="icon" viewBox="0 0 1024 1024" version="1.1" xmlns="http://www.w3.org/2000/svg" p-id="5687"
     xmlns:xlink="http://www.w3.org/1999/xlink" width="200" height="200">
    <defs>
        <style type="text/css"></style>
    </defs>
    <path d="M514.9568187499998 601.6999268750001l-28.338618750000002-28.455720937499997-22.132228124999997-22.1322271875c-7.0261040625-7.0261040625-11.94437625-12.295681875-14.7548175-15.808734374999998-5.620883437499999-4.918273125000001-12.9982921875-8.899731562500001-22.132228124999997-12.0614784375-9.133935000000001-3.1617468749999995-16.862649374999997-1.1710171875-23.1861421875 5.7379856249999985-5.620883437499999 7.728714375-7.0261040625 15.223225312499997-4.2156628125 22.6006340625 2.81044125 7.37740875 5.972188125 13.115394374999997 9.485240625 17.33105625l15.8087334375 14.754818437499999c7.728714375 8.431324687499998 16.1600390625 17.565259687500003 25.2939740625 27.401804999999996 10.539155625 11.2417659375 22.1322271875 23.186143124999997 34.6621125 35.7160284375l-1.0539150000000002 22.1322271875h-71.549158125c-6.323493749999999 0-11.710172812499998 2.4591365625000003-16.27714125 7.377409687499999-4.5669675000000005 4.918273125000001-6.791900625 10.187850937499999-6.791900625 15.8087334375s2.1078309374999997 10.539155625 6.323493749999999 14.754818437499999c4.2156628125 4.2156628125 9.8365453125 6.323493749999999 16.862649374999997 6.323493749999999h71.549158125v36.7699434375h-71.549158125c-6.323493749999999 0-11.710172812499998 1.8736274999999998-16.277140312500002 5.7379846875-4.5669675000000005 3.8643571875-6.791900625 8.899731562500001-6.791900625 15.223225312499997-0.7026103125 5.620883437499999 1.1710171875 10.3049521875 5.7379846875 14.169309375000001 4.5669675000000005 3.8643571875 10.3049521875 5.7379846875 17.33105625 5.7379846875h71.549158125v21.0783121875c0.7026103125 9.8365453125 3.8643571875 16.6284459375 9.485240625 20.492803124999995 5.620883437499999 3.8643571875 12.646987499999998 5.7379846875 21.07831125 5.7379846875 8.431324687499998 0.7026103125 15.223225312499997-1.9907296874999998 20.492803124999995-7.845815624999999 5.2695778125-5.972188125 7.845815624999999-12.0614784375 7.8458165625000005-18.3849721875v-21.0783121875H616.9524274999998c7.0261040625 0 12.764088749999999-1.6394240624999998 17.33105625-4.68406875 4.5669675000000005-3.1617468749999995 6.440595-8.19712125 5.7379846875-15.223225312499997 0-14.754818437499999-9.8365453125-22.1322271875-29.392534687500003-22.1322271875h-67.33349624999998l1.0539159375-35.7160284375 68.38741125-1.0539159375c9.8365453125 0.7026103125 16.862649374999997-1.1710171875 21.0783121875-5.7379846875 4.2156628125-4.5669675000000005 6.323493749999999-9.9536475 6.323493749999999-16.277140312500002 0-5.620883437499999-2.224933125-10.656257812500002-6.791900625-15.223225312499997-4.5669675000000005-4.5669675000000005-11.710172812499998-6.791900625-21.546719062500003-6.791900625h-68.38741125V647.9551109375c11.94437625-11.2417659375 22.8348375-22.1322271875 32.5542815625-32.5542815625 8.431324687499998-8.431324687499998 16.862649374999997-16.9797515625 25.2939740625-25.7623809375 8.431324687499998-8.7826303125 14.754818437499999-14.8719196875 18.970480312499998-18.3849721875 16.1600390625-14.052208125 19.673090625-26.34789 10.539156562499999-36.7699434375-4.918273125000001-6.323493749999999-11.2417659375-9.485240625-18.97048125-9.485240625s-14.754818437499999 2.81044125-21.07831125 8.431324687499998c-3.5130515624999994 2.81044125-9.485240625 7.845815624999999-17.9165653125 15.223225312499997-8.431324687499998 7.37740875-16.862649374999997 14.8719196875-25.2939740625 22.6006340625-9.8365453125 9.01683375-20.6099053125 19.204683749999997-32.5542815625 30.446450624999994z m111.480849375-322.84947562499997c8.431324687499998 11.2417659375 18.970480312499998 23.5374478125 31.500365624999997 36.769944375 10.539155625 11.94437625 23.5374478125 25.411076249999994 38.877775312500006 40.517199375 15.45742875 15.106123125 33.256891875 31.03195874999999 53.63259281250001 47.894608125 16.862649374999997 14.754818437499999 34.193705625 32.085874687499995 52.1102709375 51.99316875 17.9165653125 20.02439625 33.4910953125 43.327640625 46.840693124999994 69.90973406250001 13.349597812499999 26.699194687499997 22.6006340625 57.2627465625 27.870211875 92.04196124999999 5.2695778125 34.6621125 4.3327640625 73.422785625-2.5762378124999996 116.1649190625-6.323493749999999 35.013418125-18.736276874999998 68.1532078125-37.3554525 99.41936999999997-18.619175625 31.1490609375-43.327640625 58.31666249999999-74.12539687499999 81.502805625-30.797755312499998 23.186143124999997-67.45059749999999 41.57111531249999-109.84142437499999 55.154915625-42.390826874999995 13.700902499999998-90.636740625 20.492803124999995-144.6206390625 20.492803124999995-55.3891190625 0-104.45474531250001-7.845815624999999-147.19687781250002-23.65455s-79.0436690625-36.301536562500004-108.90461062499999-61.478409375000005c-29.743840312499998-25.2939740625-53.3983903125-53.3983903125-70.96365-84.6645515625-17.565259687500003-31.1490609375-29.158331249999996-62.1810196875-34.6621125-93.09587718749998-6.323493749999999-34.31080781249999-7.1432053125-67.33349624999998-2.5762378124999996-98.83386187499998 4.5669675000000005-31.500365624999997 12.764088749999999-61.127103749999996 24.708464999999997-88.88021531250001 11.94437625-27.636008437500003 26.816296875-53.04708468749999 44.7328621875-76.233226875 17.9165653125-23.186143124999997 37.3554525-43.7960475 58.31666249999999-62.06391843750001 18.267870000000002-16.1600390625 34.6621125-31.383264375 49.41693093749999-45.7867771875 14.754818437499999-14.4035128125 26.933398125000004-27.5189071875 36.7699434375-39.4632834375 11.94437625-13.349597812499999 22.4835328125-25.996584375 31.500366562500002-37.823859375h236.5454990625zM507.57940999999977 68.53573999999998c1.405220625 0 3.1617468749999995-0.7026103125 5.2695778125-2.1078309374999997 4.2156628125-2.81044125 9.8365453125-7.728714375 16.862649374999997-14.754818437499999 8.431324687499998-7.728714375 16.862649374999997-13.349597812499999 25.2939740625-16.862649374999997 8.431324687499998-3.5130515624999994 19.673090625-2.4591365625000003 33.6081965625 3.1617468749999995 7.0261040625 2.1078309374999997 12.646987499999998 5.035374375 16.8626503125 8.899731562500001 4.2156628125 3.8643571875 8.19712125 7.494510937499999 12.0614775 11.007563437499998 3.8643571875 3.5130515624999994 8.080019062499998 6.440595 12.646987499999998 8.899731562500001C634.6347893749999 69.35545250000001 640.4898753124999 70.64357187500002 647.3988781249998 70.64357187500002c7.0261040625 0 12.9982921875-1.0539159375 17.916564375-3.1617468749999995 4.918273125000001-2.1078309374999997 9.602341874999999-3.9814584375 14.1693103125-5.7379846875 4.5669675000000005-1.7565262499999998 9.133935000000001-2.9275434375000002 13.700902499999998-3.6301537500000003 4.5669675000000005-0.7026103125 9.9536475 0 16.277140312500002 2.1078309374999997 7.0261040625 2.81044125 11.710172812499998 6.791900625 14.169309375000001 12.0614784375 2.4591365625000003 5.2695778125 3.1617468749999995 10.656257812500002 2.107831875 16.277140312500002-1.0539159375 5.620883437499999-3.5130515624999994 11.2417659375-7.377409687499999 16.862649374999997-3.8643571875 5.620883437499999-8.548426874999999 10.187850937499999-14.169309375000001 13.7009034375-13.349597812499999 8.431324687499998-23.5374478125 16.9797515625-30.446450624999994 25.7623809375-7.0261040625 8.7826303125-14.052208125 18.033666562500002-21.07831125 27.870211875-3.5130515624999994 4.918273125000001-7.37740875 10.539155625-11.593071562499999 16.862649374999997-4.2156628125 6.323493749999999-8.080019062499998 12.646987499999998-11.593071562499999 18.97048125-4.2156628125 7.728714375-8.7826303125 15.106123125-13.700902499999998 22.1322271875H398.2063915625001c-4.918273125000001-8.431324687499998-9.8365453125-16.5113446875-14.754818437499999-24.240059062499995-4.2156628125-7.0261040625-8.7826303125-14.052208125-13.700902499999998-21.07831125-4.918273125000001-7.0261040625-9.133935000000001-13.349597812499999-12.6469865625-18.97048125-7.0261040625-10.539155625-14.8719196875-19.790192812500003-23.65455-27.870211875-8.7826303125-8.080019062499998-17.33105625-15.223225312499997-25.7623809375-21.546719062500003-9.133935000000001-6.323493749999999-15.45742875-14.8719196875-18.97048125-25.7623809375s-0.351305625-20.1414975 9.485240625-27.870211875c4.918273125000001-3.5130515624999994 10.539155625-4.918273125000001 16.862649374999997-4.2156628125 6.323493749999999 0.7026103125 12.9982921875 2.1078309374999997 20.02439625 4.2156628125 7.0261040625 2.1078309374999997 13.818004687499998 4.2156628125 20.492803124999995 6.323493749999999 6.6747984375 2.1078309374999997 12.764088749999999 2.4591365625000003 18.3849721875 1.0539150000000002 9.8365453125-2.1078309374999997 17.213955-5.7379846875 22.1322271875-11.007562499999999 4.918273125000001-5.2695778125 13.349597812499999-11.710172812499998 25.2939740625-19.4388871875 9.133935000000001-5.620883437499999 19.3217859375-7.494510937499999 30.446450624999994-5.7379856249999985 11.2417659375 1.7565262499999998 19.673090625 5.38668 25.2939740625 11.007563437499998 2.81044125 3.5130515624999994 5.7379846875 6.440595 8.899731562500001 8.899731562500001 3.1617468749999995 2.4591365625000003 6.440595 4.684069687499999 9.9536475 6.791900625 3.5130515624999994 2.69334 7.37740875 5.1524765624999995 11.593071562499999 7.260306562500001z m0 0"
          fill="" p-id="5688"></path>
</svg>