<?xml version="1.0" standalone="no"?><!DOCTYPE svg PUBLIC "-//W3C//DTD SVG 1.1//EN" "http://www.w3.org/Graphics/SVG/1.1/DTD/svg11.dtd"><svg t="1623307211011" class="icon" viewBox="0 0 1090 1024" version="1.1" xmlns="http://www.w3.org/2000/svg" p-id="20807" xmlns:xlink="http://www.w3.org/1999/xlink" width="212.890625" height="200"><defs><style type="text/css"></style></defs><path d="M941.562209 198.259481h-49.735196v-115.82169A82.437791 82.437791 0 0 0 809.389222 0H115.82169A115.82169 115.82169 0 0 0 0 115.82169v759.654025a149.205589 149.205589 0 0 0 148.524285 148.524285h793.037924A149.205589 149.205589 0 0 0 1090.086494 875.475715V346.783766a149.205589 149.205589 0 0 0-148.524285-148.524285zM115.82169 34.065203h693.567532a49.735196 49.735196 0 0 1 49.735196 49.735196v115.82169H115.82169A83.119095 83.119095 0 1 1 115.82169 34.065203z m941.562209 841.410512a116.502994 116.502994 0 0 1-115.82169 115.82169H148.524285a116.502994 116.502994 0 0 1-115.82169-115.82169v-681.304058a114.459082 114.459082 0 0 0 83.119095 34.746507h825.740519a116.502994 116.502994 0 0 1 115.82169 115.82169z" p-id="20808"></path><path d="M808.707917 497.351963A115.82169 115.82169 0 1 0 925.210912 613.173653a115.82169 115.82169 0 0 0-116.502995-115.82169z m0 204.391217A87.206919 87.206919 0 1 1 895.914837 613.173653a87.888224 87.888224 0 0 1-87.20692 87.206919z" p-id="20809"></path></svg>