<?xml version="1.0" standalone="no"?><!DOCTYPE svg PUBLIC "-//W3C//DTD SVG 1.1//EN" "http://www.w3.org/Graphics/SVG/1.1/DTD/svg11.dtd"><svg t="1623306873719" class="icon" viewBox="0 0 1024 1024" version="1.1" xmlns="http://www.w3.org/2000/svg" p-id="10410" xmlns:xlink="http://www.w3.org/1999/xlink" width="200" height="200"><defs><style type="text/css"></style></defs><path d="M110.7 560.927c0.283-61.034 27.126-122.597 64.459-182.654 37.534-59.975 86.562-118.396 135.332-170.13 97.55-103.34 194.155-179.714 194.816-180.286 11.01-8.73 26.51-8.69 37.536 0 1.097 1.223 217.651 171.354 330.136 350.416 37.331 60.056 64.175 121.621 64.504 182.654-0.129 223.618-185.636 403.374-413.415 403.774V904.214c195.503-0.048 352.538-154.306 352.902-343.287 1.428-74.086-67-181.631-148.304-272.856-78.68-89.504-166.85-165.983-204.563-197.42-4.537 3.78-9.804 8.228-15.736 13.296-21.55 18.36-51.45 44.718-84.66 76.291-66.338 63.118-145.824 147.73-197.263 230.105-34.521 54.83-55.527 108.483-55.243 150.584 0.33 188.981 157.4 343.239 352.868 343.287V964.7c-227.695-0.4-413.25-180.155-413.37-403.774z" fill="" p-id="10411"></path><path d="M471.33 790.843c-7.562-3.545-11.708-11.777-10.078-19.971l31.66-158.423H335.018c-7.008 0-13.364-3.993-16.374-10.307-3.025-6.316-2.127-13.812 2.28-19.276l234.088-288.12c5.258-6.48 14.307-8.517 21.846-4.973 7.535 3.544 11.696 11.82 10.066 19.965l-31.71 158.388h157.98c6.97 0 13.364 4.035 16.327 10.35a18.131 18.131 0 0 1-2.267 19.234L493.115 785.87a18.121 18.121 0 0 1-14.084 6.7c-2.598 0-5.244-0.567-7.7-1.727z m-98.212-214.658h141.96c5.46 0 10.596 2.447 14.025 6.639 3.462 4.2 4.841 9.7 3.778 15.08l-21.678 108.142 163.805-201.613H533.095a18.069 18.069 0 0 1-14.024-6.646c-3.461-4.236-4.843-9.735-3.792-15.074l21.62-108.084-163.78 201.556z" fill="" p-id="10412"></path></svg>